# xmcd
#
# Track frame offsets: 
#        150
#        20940
#        37203
#        52248
#        65543
#        88451
#        108571
#        124013
#        163022
#        182296
#        210036
#        219814
#        250374
#        266172
#        287391
#
# Disc length: 4281 seconds
#
# Revision: 0
# Processed by: cddbd v1.5.2PL0 Copyright (c) Steve Scherf et al.
# Submitted via: ExactAudioCopy v0.95b3
#
DISCID=e110b70f
DTITLE=Milieu - Remodelled
DYEAR=2007
DGENRE=Electronic
TTITLE0=Hidden Paths
TTITLE1=Elep
TTITLE2=Forest (Fast Edit)
TTITLE3=As Summer Blooms
TTITLE4=Auburn Morning Winds
TTITLE5=Bike Trail 2
TTITLE6=Lazer Rinq
TTITLE7=Sway Blue Waters
TTITLE8=Thrum
TTITLE9=Blackwood Moth
TTITLE10=Snowhill
TTITLE11=Pileus (Infinite Edit)
TTITLE12=Cumulus Drones
TTITLE13=Glasshill (Gravel Bank)
TTITLE14=Narthex
EXTD=
EXTT0=
EXTT1=
EXTT2=
EXTT3=
EXTT4=
EXTT5=
EXTT6=
EXTT7=
EXTT8=
EXTT9=
EXTT10=
EXTT11=
EXTT12=
EXTT13=
EXTT14=
PLAYORDER=
